<mxfile host="app.diagrams.net" agent="Mozilla/5.0 (Windows NT 10.0; Win64; x64) AppleWebKit/537.36 (KHTML, like Gecko) Chrome/112.0.0.0 Safari/537.36" version="24.8.4">
  <diagram id="C5RBs43oDa-KdzZeNtuy" name="Page-1">
    <mxGraphModel dx="2440" dy="927" grid="1" gridSize="10" guides="1" tooltips="1" connect="1" arrows="1" fold="1" page="1" pageScale="1" pageWidth="827" pageHeight="1169" math="0" shadow="0">
      <root>
        <mxCell id="WIyWlLk6GJQsqaUBKTNV-0" />
        <mxCell id="WIyWlLk6GJQsqaUBKTNV-1" parent="WIyWlLk6GJQsqaUBKTNV-0" />
        <mxCell id="90q3H6xHBmCu7M7i1s0w-65" style="edgeStyle=orthogonalEdgeStyle;rounded=0;orthogonalLoop=1;jettySize=auto;html=1;entryX=1;entryY=0.75;entryDx=0;entryDy=0;exitX=0.061;exitY=0.742;exitDx=0;exitDy=0;exitPerimeter=0;" edge="1" parent="WIyWlLk6GJQsqaUBKTNV-1" target="90q3H6xHBmCu7M7i1s0w-20">
          <mxGeometry relative="1" as="geometry">
            <mxPoint x="933.6599999999999" y="446.3599999999999" as="sourcePoint" />
          </mxGeometry>
        </mxCell>
        <mxCell id="90q3H6xHBmCu7M7i1s0w-67" style="edgeStyle=orthogonalEdgeStyle;rounded=0;orthogonalLoop=1;jettySize=auto;html=1;entryX=0.75;entryY=0;entryDx=0;entryDy=0;" edge="1" parent="WIyWlLk6GJQsqaUBKTNV-1" target="90q3H6xHBmCu7M7i1s0w-20">
          <mxGeometry relative="1" as="geometry">
            <mxPoint x="560" y="110" as="sourcePoint" />
            <mxPoint x="558" y="380" as="targetPoint" />
          </mxGeometry>
        </mxCell>
        <mxCell id="90q3H6xHBmCu7M7i1s0w-1" value="" style="editableCssRules=.*;html=1;shape=image;verticalLabelPosition=bottom;labelBackgroundColor=#ffffff;verticalAlign=top;aspect=fixed;imageAspect=0;image=data:image/svg+xml,PHN2ZyB4bWxucz0iaHR0cDovL3d3dy53My5vcmcvMjAwMC9zdmciIHhtbG5zOnY9Imh0dHBzOi8vdmVjdGEuaW8vbmFubyIgd2lkdGg9IjIwIiBoZWlnaHQ9IjE3LjUiIGZpbGwtcnVsZT0iZXZlbm9kZCIgdmlld0JveD0iMCAwIDIwIDE3LjUiPiYjeGE7CTxzdHlsZSB0eXBlPSJ0ZXh0L2NzcyI+JiN4YTsJLnN0MHtmaWxsOiM0Mjg1ZjQ7fSYjeGE7CS5zdDF7ZmlsbDojNjY5ZGY2O30mI3hhOwk8L3N0eWxlPiYjeGE7CTxwYXRoIGNsYXNzPSJzdDAiIGQ9Ik0xOC45MSAxMC42M0wyMCA4Ljc1IDE3LjgyIDVoLTMuMDdsLTEuMDYtMS44NkgxMi41VjEuODhoMS45NGwxLjA2IDEuODdoMS41OUwxNC45IDBoLTQuMjd2NWgxLjczbC43MyAxLjI1aC0yLjQ2djIuNWgyLjI2bDEuMDUtMS44N2gyLjgxbC43MiAxLjI1aC0yLjhMMTMuNjIgMTBoLTIuOTl2NC4zOGgzLjRsLS43MiAxLjI1aC0yLjY4djEuODdoNC4yN2wzLjI4LTUuNjJoLTIuMDlsLS43MyAxLjI1SDEyLjV2LTEuMjVoMi4xNGwuNzQtMS4yNXoiLz4mI3hhOwk8cGF0aCBjbGFzcz0ic3QxIiBkPSJNMS4wOSAxMC42M0wwIDguNzUgMi4xOCA1aDMuMDdsMS4wNi0xLjg2SDcuNVYxLjg4SDUuNTZMNC41IDMuNzVIMi45MUw1LjEgMGg0LjI4djVINy42NGwtLjczIDEuMjVoMi40N3YyLjVINy4xMUw2LjA2IDYuODhIMy4yNWwtLjcyIDEuMjVoMi44TDYuMzggMTBoM3Y0LjM4SDUuOTdsLjcyIDEuMjVoMi42OXYxLjg3SDUuMWwtMy4yOC01LjYyaDIuMDlsLjczIDEuMjVINy41di0xLjI1SDUuMzZsLS43NC0xLjI1eiIvPiYjeGE7PC9zdmc+;" vertex="1" parent="WIyWlLk6GJQsqaUBKTNV-1">
          <mxGeometry x="491.11999999999995" y="20" width="88.88" height="80" as="geometry" />
        </mxCell>
        <mxCell id="90q3H6xHBmCu7M7i1s0w-22" style="edgeStyle=orthogonalEdgeStyle;rounded=0;orthogonalLoop=1;jettySize=auto;html=1;entryX=-0.045;entryY=0.165;entryDx=0;entryDy=0;entryPerimeter=0;" edge="1" parent="WIyWlLk6GJQsqaUBKTNV-1" target="90q3H6xHBmCu7M7i1s0w-17">
          <mxGeometry relative="1" as="geometry">
            <mxPoint x="120" y="400" as="sourcePoint" />
          </mxGeometry>
        </mxCell>
        <mxCell id="90q3H6xHBmCu7M7i1s0w-16" value="" style="html=1;verticalLabelPosition=bottom;align=center;labelBackgroundColor=#ffffff;verticalAlign=top;strokeWidth=2;strokeColor=#0080F0;shadow=0;dashed=0;shape=mxgraph.ios7.icons.user;" vertex="1" parent="WIyWlLk6GJQsqaUBKTNV-1">
          <mxGeometry x="40" y="389" width="78.89" height="80" as="geometry" />
        </mxCell>
        <mxCell id="90q3H6xHBmCu7M7i1s0w-29" style="edgeStyle=orthogonalEdgeStyle;rounded=0;orthogonalLoop=1;jettySize=auto;html=1;exitX=1.002;exitY=0.144;exitDx=0;exitDy=0;exitPerimeter=0;entryX=-0.048;entryY=0.138;entryDx=0;entryDy=0;entryPerimeter=0;" edge="1" parent="WIyWlLk6GJQsqaUBKTNV-1" source="90q3H6xHBmCu7M7i1s0w-17" target="90q3H6xHBmCu7M7i1s0w-20">
          <mxGeometry relative="1" as="geometry" />
        </mxCell>
        <mxCell id="90q3H6xHBmCu7M7i1s0w-17" value="" style="shape=image;html=1;verticalAlign=top;verticalLabelPosition=bottom;labelBackgroundColor=#ffffff;imageAspect=0;aspect=fixed;image=https://cdn3.iconfinder.com/data/icons/2018-social-media-logotypes/1000/2018_social_media_popular_app_logo-whatsapp-128.png" vertex="1" parent="WIyWlLk6GJQsqaUBKTNV-1">
          <mxGeometry x="269" y="387" width="82" height="82" as="geometry" />
        </mxCell>
        <mxCell id="90q3H6xHBmCu7M7i1s0w-68" style="edgeStyle=orthogonalEdgeStyle;rounded=0;orthogonalLoop=1;jettySize=auto;html=1;exitX=0.734;exitY=0;exitDx=0;exitDy=0;exitPerimeter=0;entryX=0.75;entryY=1;entryDx=0;entryDy=0;" edge="1" parent="WIyWlLk6GJQsqaUBKTNV-1" source="90q3H6xHBmCu7M7i1s0w-18" target="90q3H6xHBmCu7M7i1s0w-20">
          <mxGeometry relative="1" as="geometry" />
        </mxCell>
        <mxCell id="90q3H6xHBmCu7M7i1s0w-18" value="" style="aspect=fixed;sketch=0;html=1;dashed=0;whitespace=wrap;verticalLabelPosition=bottom;verticalAlign=top;fillColor=#2875E2;strokeColor=#ffffff;points=[[0.005,0.63,0],[0.1,0.2,0],[0.9,0.2,0],[0.5,0,0],[0.995,0.63,0],[0.72,0.99,0],[0.5,1,0],[0.28,0.99,0]];shape=mxgraph.kubernetes.icon2;prIcon=api" vertex="1" parent="WIyWlLk6GJQsqaUBKTNV-1">
          <mxGeometry x="497.28999999999996" y="790" width="85.42" height="82" as="geometry" />
        </mxCell>
        <mxCell id="90q3H6xHBmCu7M7i1s0w-52" style="edgeStyle=orthogonalEdgeStyle;rounded=0;orthogonalLoop=1;jettySize=auto;html=1;entryX=0.266;entryY=0;entryDx=0;entryDy=0;entryPerimeter=0;exitX=0.25;exitY=1;exitDx=0;exitDy=0;" edge="1" parent="WIyWlLk6GJQsqaUBKTNV-1" source="90q3H6xHBmCu7M7i1s0w-20" target="90q3H6xHBmCu7M7i1s0w-18">
          <mxGeometry relative="1" as="geometry" />
        </mxCell>
        <mxCell id="90q3H6xHBmCu7M7i1s0w-66" style="edgeStyle=orthogonalEdgeStyle;rounded=0;orthogonalLoop=1;jettySize=auto;html=1;entryX=0.25;entryY=1;entryDx=0;entryDy=0;exitX=0.171;exitY=-0.04;exitDx=0;exitDy=0;exitPerimeter=0;" edge="1" parent="WIyWlLk6GJQsqaUBKTNV-1" source="90q3H6xHBmCu7M7i1s0w-20" target="90q3H6xHBmCu7M7i1s0w-1">
          <mxGeometry relative="1" as="geometry" />
        </mxCell>
        <mxCell id="90q3H6xHBmCu7M7i1s0w-20" value="" style="shape=image;html=1;verticalAlign=top;verticalLabelPosition=bottom;labelBackgroundColor=#ffffff;imageAspect=0;aspect=fixed;image=https://cdn0.iconfinder.com/data/icons/long-shadow-web-icons/512/python-128.png" vertex="1" parent="WIyWlLk6GJQsqaUBKTNV-1">
          <mxGeometry x="500" y="387" width="80" height="80" as="geometry" />
        </mxCell>
        <mxCell id="90q3H6xHBmCu7M7i1s0w-25" value="Usuário envia uma mensagem via whatsapp" style="whiteSpace=wrap;html=1;" vertex="1" parent="WIyWlLk6GJQsqaUBKTNV-1">
          <mxGeometry x="130" y="330" width="120" height="60" as="geometry" />
        </mxCell>
        <mxCell id="90q3H6xHBmCu7M7i1s0w-30" value="Via twilio a api em python recebe a mensagem" style="whiteSpace=wrap;html=1;" vertex="1" parent="WIyWlLk6GJQsqaUBKTNV-1">
          <mxGeometry x="364" y="330" width="120" height="60" as="geometry" />
        </mxCell>
        <mxCell id="90q3H6xHBmCu7M7i1s0w-37" value="É repassada a mensagem para inteligência artificial, junto ao conexto da convesar e as possiblidades de ações" style="whiteSpace=wrap;html=1;" vertex="1" parent="WIyWlLk6GJQsqaUBKTNV-1">
          <mxGeometry x="379.99999999999994" y="120" width="120" height="120" as="geometry" />
        </mxCell>
        <mxCell id="90q3H6xHBmCu7M7i1s0w-45" value="A inteligencia artifical responde podendo enviar uma mensagem diretamente para o usuario ou solicitar ações ao sistema" style="whiteSpace=wrap;html=1;" vertex="1" parent="WIyWlLk6GJQsqaUBKTNV-1">
          <mxGeometry x="570" y="120" width="120" height="120" as="geometry" />
        </mxCell>
        <mxCell id="90q3H6xHBmCu7M7i1s0w-47" value="O sistema grava no banco de dados todas as interações com o usuario e também pode solicitar informações e históricos de conversas" style="whiteSpace=wrap;html=1;" vertex="1" parent="WIyWlLk6GJQsqaUBKTNV-1">
          <mxGeometry x="720" y="290" width="120" height="120" as="geometry" />
        </mxCell>
        <mxCell id="90q3H6xHBmCu7M7i1s0w-49" value="responde as solicitações do sistema" style="whiteSpace=wrap;html=1;" vertex="1" parent="WIyWlLk6GJQsqaUBKTNV-1">
          <mxGeometry x="720" y="450" width="120" height="60" as="geometry" />
        </mxCell>
        <mxCell id="90q3H6xHBmCu7M7i1s0w-53" value="caso necessário sistema pode conectar a bancos ou apis externas, como da empresa, para solicitar ou gravar informações" style="whiteSpace=wrap;html=1;" vertex="1" parent="WIyWlLk6GJQsqaUBKTNV-1">
          <mxGeometry x="390" y="650" width="120" height="100" as="geometry" />
        </mxCell>
        <mxCell id="90q3H6xHBmCu7M7i1s0w-55" value="Apis externas retornam informações solicitadas" style="whiteSpace=wrap;html=1;" vertex="1" parent="WIyWlLk6GJQsqaUBKTNV-1">
          <mxGeometry x="570" y="650" width="120" height="100" as="geometry" />
        </mxCell>
        <mxCell id="90q3H6xHBmCu7M7i1s0w-57" style="edgeStyle=orthogonalEdgeStyle;rounded=0;orthogonalLoop=1;jettySize=auto;html=1;entryX=1.002;entryY=0.917;entryDx=0;entryDy=0;entryPerimeter=0;exitX=-0.037;exitY=0.94;exitDx=0;exitDy=0;exitPerimeter=0;" edge="1" parent="WIyWlLk6GJQsqaUBKTNV-1" source="90q3H6xHBmCu7M7i1s0w-20" target="90q3H6xHBmCu7M7i1s0w-17">
          <mxGeometry relative="1" as="geometry" />
        </mxCell>
        <mxCell id="90q3H6xHBmCu7M7i1s0w-58" value="Quando permitido pela ia sistema retorna mensagem com possíveis arquivos" style="whiteSpace=wrap;html=1;" vertex="1" parent="WIyWlLk6GJQsqaUBKTNV-1">
          <mxGeometry x="364" y="467" width="120" height="73" as="geometry" />
        </mxCell>
        <mxCell id="90q3H6xHBmCu7M7i1s0w-59" value="WhatsApp retorna a informação ao usuário" style="whiteSpace=wrap;html=1;" vertex="1" parent="WIyWlLk6GJQsqaUBKTNV-1">
          <mxGeometry x="124" y="467" width="120" height="73" as="geometry" />
        </mxCell>
        <mxCell id="90q3H6xHBmCu7M7i1s0w-61" style="edgeStyle=orthogonalEdgeStyle;rounded=0;orthogonalLoop=1;jettySize=auto;html=1;entryX=0.887;entryY=0.888;entryDx=0;entryDy=0;entryPerimeter=0;exitX=-0.004;exitY=0.886;exitDx=0;exitDy=0;exitPerimeter=0;" edge="1" parent="WIyWlLk6GJQsqaUBKTNV-1" source="90q3H6xHBmCu7M7i1s0w-17" target="90q3H6xHBmCu7M7i1s0w-16">
          <mxGeometry relative="1" as="geometry" />
        </mxCell>
        <mxCell id="90q3H6xHBmCu7M7i1s0w-62" style="edgeStyle=orthogonalEdgeStyle;rounded=0;orthogonalLoop=1;jettySize=auto;html=1;entryX=0;entryY=0;entryDx=0;entryDy=27.5;entryPerimeter=0;exitX=1;exitY=0.344;exitDx=0;exitDy=0;exitPerimeter=0;" edge="1" parent="WIyWlLk6GJQsqaUBKTNV-1" source="90q3H6xHBmCu7M7i1s0w-20">
          <mxGeometry relative="1" as="geometry">
            <mxPoint x="580" y="420" as="sourcePoint" />
            <mxPoint x="930" y="414.4999999999998" as="targetPoint" />
          </mxGeometry>
        </mxCell>
        <mxCell id="90q3H6xHBmCu7M7i1s0w-69" value="" style="outlineConnect=0;dashed=0;verticalLabelPosition=bottom;verticalAlign=top;align=center;html=1;shape=mxgraph.aws3.mysql_db_instance_2;fillColor=#2E73B8;gradientColor=none;" vertex="1" parent="WIyWlLk6GJQsqaUBKTNV-1">
          <mxGeometry x="930" y="392" width="80" height="77" as="geometry" />
        </mxCell>
        <mxCell id="90q3H6xHBmCu7M7i1s0w-82" style="edgeStyle=orthogonalEdgeStyle;rounded=0;orthogonalLoop=1;jettySize=auto;html=1;entryX=0;entryY=0.5;entryDx=0;entryDy=0;" edge="1" parent="WIyWlLk6GJQsqaUBKTNV-1" source="90q3H6xHBmCu7M7i1s0w-70" target="90q3H6xHBmCu7M7i1s0w-71">
          <mxGeometry relative="1" as="geometry" />
        </mxCell>
        <mxCell id="90q3H6xHBmCu7M7i1s0w-70" value="" style="shape=image;html=1;verticalAlign=top;verticalLabelPosition=bottom;labelBackgroundColor=#ffffff;imageAspect=0;aspect=fixed;image=https://cdn3.iconfinder.com/data/icons/2018-social-media-logotypes/1000/2018_social_media_popular_app_logo-whatsapp-128.png" vertex="1" parent="WIyWlLk6GJQsqaUBKTNV-1">
          <mxGeometry x="1131.71" y="150" width="82" height="82" as="geometry" />
        </mxCell>
        <mxCell id="90q3H6xHBmCu7M7i1s0w-71" value="Twilio" style="whiteSpace=wrap;html=1;" vertex="1" parent="WIyWlLk6GJQsqaUBKTNV-1">
          <mxGeometry x="1303.71" y="161" width="120" height="60" as="geometry" />
        </mxCell>
        <mxCell id="90q3H6xHBmCu7M7i1s0w-84" style="edgeStyle=orthogonalEdgeStyle;rounded=0;orthogonalLoop=1;jettySize=auto;html=1;entryX=0;entryY=0.5;entryDx=0;entryDy=0;" edge="1" parent="WIyWlLk6GJQsqaUBKTNV-1" source="90q3H6xHBmCu7M7i1s0w-72" target="90q3H6xHBmCu7M7i1s0w-73">
          <mxGeometry relative="1" as="geometry" />
        </mxCell>
        <mxCell id="90q3H6xHBmCu7M7i1s0w-72" value="" style="editableCssRules=.*;html=1;shape=image;verticalLabelPosition=bottom;labelBackgroundColor=#ffffff;verticalAlign=top;aspect=fixed;imageAspect=0;image=data:image/svg+xml,PHN2ZyB4bWxucz0iaHR0cDovL3d3dy53My5vcmcvMjAwMC9zdmciIHhtbG5zOnY9Imh0dHBzOi8vdmVjdGEuaW8vbmFubyIgd2lkdGg9IjIwIiBoZWlnaHQ9IjE3LjUiIGZpbGwtcnVsZT0iZXZlbm9kZCIgdmlld0JveD0iMCAwIDIwIDE3LjUiPiYjeGE7CTxzdHlsZSB0eXBlPSJ0ZXh0L2NzcyI+JiN4YTsJLnN0MHtmaWxsOiM0Mjg1ZjQ7fSYjeGE7CS5zdDF7ZmlsbDojNjY5ZGY2O30mI3hhOwk8L3N0eWxlPiYjeGE7CTxwYXRoIGNsYXNzPSJzdDAiIGQ9Ik0xOC45MSAxMC42M0wyMCA4Ljc1IDE3LjgyIDVoLTMuMDdsLTEuMDYtMS44NkgxMi41VjEuODhoMS45NGwxLjA2IDEuODdoMS41OUwxNC45IDBoLTQuMjd2NWgxLjczbC43MyAxLjI1aC0yLjQ2djIuNWgyLjI2bDEuMDUtMS44N2gyLjgxbC43MiAxLjI1aC0yLjhMMTMuNjIgMTBoLTIuOTl2NC4zOGgzLjRsLS43MiAxLjI1aC0yLjY4djEuODdoNC4yN2wzLjI4LTUuNjJoLTIuMDlsLS43MyAxLjI1SDEyLjV2LTEuMjVoMi4xNGwuNzQtMS4yNXoiLz4mI3hhOwk8cGF0aCBjbGFzcz0ic3QxIiBkPSJNMS4wOSAxMC42M0wwIDguNzUgMi4xOCA1aDMuMDdsMS4wNi0xLjg2SDcuNVYxLjg4SDUuNTZMNC41IDMuNzVIMi45MUw1LjEgMGg0LjI4djVINy42NGwtLjczIDEuMjVoMi40N3YyLjVINy4xMUw2LjA2IDYuODhIMy4yNWwtLjcyIDEuMjVoMi44TDYuMzggMTBoM3Y0LjM4SDUuOTdsLjcyIDEuMjVoMi42OXYxLjg3SDUuMWwtMy4yOC01LjYyaDIuMDlsLjczIDEuMjVINy41di0xLjI1SDUuMzZsLS43NC0xLjI1eiIvPiYjeGE7PC9zdmc+;" vertex="1" parent="WIyWlLk6GJQsqaUBKTNV-1">
          <mxGeometry x="1131.71" y="400" width="88.88" height="80" as="geometry" />
        </mxCell>
        <mxCell id="90q3H6xHBmCu7M7i1s0w-73" value="&lt;div&gt;Open AI&amp;nbsp;&lt;span style=&quot;background-color: initial;&quot;&gt;gpt-4o-mini&lt;/span&gt;&lt;/div&gt;" style="whiteSpace=wrap;html=1;" vertex="1" parent="WIyWlLk6GJQsqaUBKTNV-1">
          <mxGeometry x="1303.71" y="410" width="120" height="60" as="geometry" />
        </mxCell>
        <mxCell id="90q3H6xHBmCu7M7i1s0w-83" style="edgeStyle=orthogonalEdgeStyle;rounded=0;orthogonalLoop=1;jettySize=auto;html=1;entryX=0;entryY=0.5;entryDx=0;entryDy=0;" edge="1" parent="WIyWlLk6GJQsqaUBKTNV-1" source="90q3H6xHBmCu7M7i1s0w-75" target="90q3H6xHBmCu7M7i1s0w-76">
          <mxGeometry relative="1" as="geometry" />
        </mxCell>
        <mxCell id="90q3H6xHBmCu7M7i1s0w-75" value="" style="shape=image;html=1;verticalAlign=top;verticalLabelPosition=bottom;labelBackgroundColor=#ffffff;imageAspect=0;aspect=fixed;image=https://cdn0.iconfinder.com/data/icons/long-shadow-web-icons/512/python-128.png" vertex="1" parent="WIyWlLk6GJQsqaUBKTNV-1">
          <mxGeometry x="1133.71" y="274" width="80" height="80" as="geometry" />
        </mxCell>
        <mxCell id="90q3H6xHBmCu7M7i1s0w-76" value="Azure App Service" style="whiteSpace=wrap;html=1;" vertex="1" parent="WIyWlLk6GJQsqaUBKTNV-1">
          <mxGeometry x="1303.71" y="284" width="120" height="60" as="geometry" />
        </mxCell>
        <mxCell id="90q3H6xHBmCu7M7i1s0w-85" style="edgeStyle=orthogonalEdgeStyle;rounded=0;orthogonalLoop=1;jettySize=auto;html=1;entryX=0;entryY=0.5;entryDx=0;entryDy=0;" edge="1" parent="WIyWlLk6GJQsqaUBKTNV-1" source="90q3H6xHBmCu7M7i1s0w-77" target="90q3H6xHBmCu7M7i1s0w-78">
          <mxGeometry relative="1" as="geometry" />
        </mxCell>
        <mxCell id="90q3H6xHBmCu7M7i1s0w-77" value="" style="outlineConnect=0;dashed=0;verticalLabelPosition=bottom;verticalAlign=top;align=center;html=1;shape=mxgraph.aws3.mysql_db_instance_2;fillColor=#2E73B8;gradientColor=none;" vertex="1" parent="WIyWlLk6GJQsqaUBKTNV-1">
          <mxGeometry x="1133.71" y="527" width="82.44" height="80" as="geometry" />
        </mxCell>
        <mxCell id="90q3H6xHBmCu7M7i1s0w-78" value="Azure Database for MySQL&amp;nbsp;" style="whiteSpace=wrap;html=1;" vertex="1" parent="WIyWlLk6GJQsqaUBKTNV-1">
          <mxGeometry x="1303.71" y="537" width="120" height="60" as="geometry" />
        </mxCell>
        <mxCell id="90q3H6xHBmCu7M7i1s0w-86" style="edgeStyle=orthogonalEdgeStyle;rounded=0;orthogonalLoop=1;jettySize=auto;html=1;entryX=0;entryY=0.5;entryDx=0;entryDy=0;" edge="1" parent="WIyWlLk6GJQsqaUBKTNV-1" source="90q3H6xHBmCu7M7i1s0w-79" target="90q3H6xHBmCu7M7i1s0w-81">
          <mxGeometry relative="1" as="geometry" />
        </mxCell>
        <mxCell id="90q3H6xHBmCu7M7i1s0w-79" value="" style="aspect=fixed;sketch=0;html=1;dashed=0;whitespace=wrap;verticalLabelPosition=bottom;verticalAlign=top;fillColor=#2875E2;strokeColor=#ffffff;points=[[0.005,0.63,0],[0.1,0.2,0],[0.9,0.2,0],[0.5,0,0],[0.995,0.63,0],[0.72,0.99,0],[0.5,1,0],[0.28,0.99,0]];shape=mxgraph.kubernetes.icon2;prIcon=api" vertex="1" parent="WIyWlLk6GJQsqaUBKTNV-1">
          <mxGeometry x="1130" y="650" width="85.42" height="82" as="geometry" />
        </mxCell>
        <mxCell id="90q3H6xHBmCu7M7i1s0w-81" value="Apis ou bancos de dados prórpios da empresa" style="whiteSpace=wrap;html=1;" vertex="1" parent="WIyWlLk6GJQsqaUBKTNV-1">
          <mxGeometry x="1303.71" y="661" width="120" height="60" as="geometry" />
        </mxCell>
      </root>
    </mxGraphModel>
  </diagram>
</mxfile>
